<svg xmlns="http://www.w3.org/2000/svg" version="1.1" xmlns:xlink="http://www.w3.org/1999/xlink" xmlns:svgjs="http://svgjs.dev/svgjs" width="2000" height="1999" viewBox="0 0 2000 1999"><g transform="matrix(1,0,0,1,-0.4314868804665366,-0.4312711370263287)"><svg viewBox="0 0 343 343" data-background-color="#5ca1ea" preserveAspectRatio="xMidYMid meet" height="1999" width="2000" xmlns="http://www.w3.org/2000/svg" xmlns:xlink="http://www.w3.org/1999/xlink"><g id="tight-bounds" transform="matrix(1,0,0,1,0.07400000000001228,0.07400000000001228)"><svg viewBox="0 0 342.8515585177538 342.8515585177538" height="342.8515585177538" width="342.8515585177538"><g><svg></svg></g><g><svg viewBox="0 0 342.8515585177538 342.8515585177538" height="342.8515585177538" width="342.8515585177538"><g><path d="M0 171.426c0-94.676 76.75-171.426 171.426-171.426 94.676 0 171.426 76.75 171.426 171.426 0 94.676-76.75 171.426-171.426 171.426-94.676 0-171.426-76.75-171.426-171.426zM171.426 339.29c92.709 0 167.864-75.155 167.864-167.864 0-92.709-75.155-167.864-167.864-167.864-92.709 0-167.864 75.155-167.864 167.864 0 92.709 75.155 167.864 167.864 167.864z" data-fill-palette-color="tertiary" fill="#242d76" stroke="transparent"></path><ellipse rx="164.56874808852183" ry="164.56874808852183" cx="171.4257792588769" cy="171.4257792588769" fill="#242d76" stroke="transparent" stroke-width="0" fill-opacity="1" data-fill-palette-color="tertiary"></ellipse></g><g transform="matrix(1,0,0,1,64.84655864529836,119.72649987063114)"><svg viewBox="0 0 213.15844122715708 103.39855877649151" height="103.39855877649151" width="213.15844122715708"><g><svg viewBox="0 0 213.15844122715708 103.39855877649151" height="103.39855877649151" width="213.15844122715708"><g><svg viewBox="0 0 213.15844122715708 103.39855877649151" height="103.39855877649151" width="213.15844122715708"><g transform="matrix(1,0,0,1,0,63.90445746832036)"><svg viewBox="0 0 213.15844122715708 39.49410130817115" height="39.49410130817115" width="213.15844122715708"><g id="textblocktransform"><svg viewBox="0 0 213.15844122715708 39.49410130817115" height="39.49410130817115" width="213.15844122715708" id="textblock"><g><svg viewBox="0 0 213.15844122715708 39.49410130817115" height="39.49410130817115" width="213.15844122715708"><g transform="matrix(1,0,0,1,0,0)"><svg width="213.15844122715708" viewBox="2.05 -35.5 194.28 36" height="39.49410130817115" data-palette-color="#e6f4f9"><path d="M2.05 0L2.05-35 10.45-35Q14.55-35 16.6-32.8 18.65-30.6 18.65-26.35L18.65-26.35 18.65-8.65Q18.65-4.4 16.6-2.2 14.55 0 10.45 0L10.45 0 2.05 0ZM7.55-5L10.35-5Q11.7-5 12.43-5.8 13.15-6.6 13.15-8.4L13.15-8.4 13.15-26.6Q13.15-28.4 12.43-29.2 11.7-30 10.35-30L10.35-30 7.55-30 7.55-5ZM22.35 0L22.35-35 37.35-35 37.35-30 27.85-30 27.85-20.75 35.4-20.75 35.4-15.75 27.85-15.75 27.85-5 37.35-5 37.35 0 22.35 0ZM40.5 0L40.5-35 46-35 46-5 55.05-5 55.05 0 40.5 0ZM57.69 0L57.69-35 63.19-35 63.19 0 57.69 0ZM71.14 0L65.84-35 71.39-35 74.99-7.85 75.09-7.85 78.69-35 83.74-35 78.44 0 71.14 0ZM86.39 0L86.39-35 101.39-35 101.39-30 91.89-30 91.89-20.75 99.44-20.75 99.44-15.75 91.89-15.75 91.89-5 101.39-5 101.39 0 86.39 0ZM104.54 0L104.54-35 112.69-35Q116.94-35 118.89-33.02 120.84-31.05 120.84-26.95L120.84-26.95 120.84-24.8Q120.84-19.35 117.24-17.9L117.24-17.9 117.24-17.8Q119.24-17.2 120.06-15.35 120.89-13.5 120.89-10.4L120.89-10.4 120.89-4.25Q120.89-2.75 120.99-1.83 121.09-0.9 121.49 0L121.49 0 115.89 0Q115.59-0.85 115.49-1.6 115.39-2.35 115.39-4.3L115.39-4.3 115.39-10.7Q115.39-13.1 114.61-14.05 113.84-15 111.94-15L111.94-15 110.04-15 110.04 0 104.54 0ZM110.04-20L112.04-20Q113.69-20 114.51-20.85 115.34-21.7 115.34-23.7L115.34-23.7 115.34-26.4Q115.34-28.3 114.66-29.15 113.99-30 112.54-30L112.54-30 110.04-30 110.04-20ZM124.68 0L124.68-35 139.68-35 139.68-30 130.18-30 130.18-20.75 137.73-20.75 137.73-15.75 130.18-15.75 130.18-5 139.68-5 139.68 0 124.68 0ZM141.38 0L147.08-35 154.53-35 160.23 0 154.73 0 153.73-6.95 153.73-6.85 147.48-6.85 146.48 0 141.38 0ZM148.13-11.6L153.08-11.6 150.63-28.9 150.53-28.9 148.13-11.6ZM169.88 0.5Q165.88 0.5 163.83-1.78 161.78-4.05 161.78-8.3L161.78-8.3 161.78-10.3 166.98-10.3 166.98-7.9Q166.98-4.5 169.83-4.5L169.83-4.5Q171.23-4.5 171.95-5.33 172.68-6.15 172.68-8L172.68-8Q172.68-10.2 171.68-11.88 170.68-13.55 167.98-15.9L167.98-15.9Q164.58-18.9 163.23-21.33 161.88-23.75 161.88-26.8L161.88-26.8Q161.88-30.95 163.98-33.23 166.08-35.5 170.08-35.5L170.08-35.5Q174.03-35.5 176.05-33.23 178.08-30.95 178.08-26.7L178.08-26.7 178.08-25.25 172.88-25.25 172.88-27.05Q172.88-28.85 172.18-29.68 171.48-30.5 170.13-30.5L170.13-30.5Q167.38-30.5 167.38-27.15L167.38-27.15Q167.38-25.25 168.4-23.6 169.43-21.95 172.13-19.6L172.13-19.6Q175.58-16.6 176.88-14.15 178.18-11.7 178.18-8.4L178.18-8.4Q178.18-4.1 176.05-1.8 173.93 0.5 169.88 0.5L169.88 0.5ZM181.33 0L181.33-35 196.33-35 196.33-30 186.83-30 186.83-20.75 194.38-20.75 194.38-15.75 186.83-15.75 186.83-5 196.33-5 196.33 0 181.33 0Z" opacity="1" transform="matrix(1,0,0,1,0,0)" fill="#e6f4f9" class="wordmark-text-0" data-fill-palette-color="quaternary" id="text-0"></path></svg></g></svg></g></svg></g></svg></g><g transform="matrix(1,0,0,1,71.29470642489099,0)"><svg viewBox="0 0 70.56902837737509 54.58084800789254" height="54.58084800789254" width="70.56902837737509"><g><svg xmlns="http://www.w3.org/2000/svg" xmlns:xlink="http://www.w3.org/1999/xlink" version="1.1" x="0" y="0" viewBox="2.06 7.48 47.89 37.040000000000006" enable-background="new 0 0 52 52" xml:space="preserve" height="54.58084800789254" width="70.56902837737509" class="icon-icon-0" data-fill-palette-color="quaternary" id="icon-0"><g fill="#e6f4f9" data-fill-palette-color="quaternary"><path d="M46.524 33.167L45.433 27.36H46.47A3.48 3.48 0 0 0 46.47 20.4H44.124L43.59 17.56A0.99 0.99 0 0 0 42.61 16.75H38.646L38.641 16.749H35.12A1 1 0 1 0 35.12 18.749H37.814L40.566 33.426A7.15 7.15 0 0 0 36.764 38.762H26.878C26.868 38.762 26.86 38.767 26.85 38.767A4.373 4.373 0 0 1 22.51 34.4C22.51 31.99 24.47 30.03 26.88 30.03 27.43 30.03 27.88 29.58 27.88 29.03V27.192A5 5 0 0 1 26.63 27.37H11.74A4.94 4.94 0 0 1 8.898 26.47C4.766 29.449 2.06 34.295 2.06 39.77 2.06 40.32 2.51 40.77 3.06 40.77H5.181C5.178 40.693 5.17 40.618 5.17 40.54 5.17 40 5.248 39.46 5.4 38.937 6.064 36.384 8.435 34.56 11.15 34.56A5.97 5.97 0 0 1 16.914 38.998C17.05 39.448 17.13 39.989 17.13 40.54 17.13 40.618 17.12 40.693 17.118 40.77H26.9C26.914 40.77 26.926 40.762 26.94 40.762H37.695A1 1 0 0 0 38.694 39.762 5.137 5.137 0 0 1 43.824 34.63 5.1 5.1 0 0 1 47.92 36.667 1 1 0 0 0 49.512 35.46 7.1 7.1 0 0 0 46.524 33.167" fill="#e6f4f9" data-fill-palette-color="quaternary"></path><path d="M43.81 36.56C41.62 36.56 39.83 38.34 39.83 40.54 39.83 42.73 41.62 44.51 43.81 44.51S47.79 42.73 47.79 40.54C47.79 38.34 46 36.56 43.81 36.56" fill="#e6f4f9" data-fill-palette-color="quaternary"></path><path d="M26.65 8.48C26.65 7.93 26.2 7.48 25.65 7.48H12.73C12.17 7.48 11.73 7.93 11.73 8.48V11.48H26.65z" fill="#e6f4f9" data-fill-palette-color="quaternary"></path><path d="M11.15 36.56C9.35 36.56 7.77 37.77 7.32 39.5 7.22 39.84 7.17 40.19 7.17 40.54 7.17 42.73 8.95 44.52 11.15 44.52A3.99 3.99 0 0 0 15.13 40.54C15.13 40.19 15.08 39.84 14.98 39.51A3.96 3.96 0 0 0 11.15 36.56" fill="#e6f4f9" data-fill-palette-color="quaternary"></path><path d="M26.65 17.4V13.48H11.73V17.4z" fill="#e6f4f9" data-fill-palette-color="quaternary"></path><path d="M11.74 25.37H26.63C28.28 25.37 29.62 24.04 29.62 22.39S28.28 19.4 26.63 19.4H11.74A2.99 2.99 0 0 0 8.76 22.39C8.76 24.04 10.1 25.37 11.74 25.37" fill="#e6f4f9" data-fill-palette-color="quaternary"></path></g></svg></g></svg></g><g></g></svg></g></svg></g></svg></g></svg></g><defs></defs></svg><rect width="342.8515585177538" height="342.8515585177538" fill="none" stroke="none" visibility="hidden"></rect></g></svg></g></svg>